/* XPM */
static char * box_xpm[] = {
"48 48 362 2",
"  	c #FFFFFF",
". 	c #7A5124",
"+ 	c #D9A770",
"@ 	c #DBA771",
"# 	c #DAA772",
"$ 	c #DAA773",
"% 	c #D3A270",
"& 	c #DCA770",
"* 	c #DBA673",
"= 	c #DBA772",
"- 	c #DAA771",
"; 	c #D9A772",
"> 	c #D7A26E",
", 	c #DAA672",
"' 	c #DBA773",
") 	c #D9A671",
"! 	c #DAA872",
"~ 	c #D8A372",
"{ 	c #DBA873",
"] 	c #DAA770",
"^ 	c #DEA46A",
"/ 	c #D9A774",
"( 	c #D8A775",
"_ 	c #D9A86F",
": 	c #DDA66D",
"< 	c #D3A16E",
"[ 	c #DBA76F",
"} 	c #D8A773",
"| 	c #D7A873",
"1 	c #D9A771",
"2 	c #D9A67A",
"3 	c #D7A774",
"4 	c #D9A773",
"5 	c #D8A770",
"6 	c #DBA871",
"7 	c #D4A26D",
"8 	c #C7955D",
"9 	c #C4915F",
"0 	c #D6A36E",
"a 	c #DAA878",
"b 	c #D7A771",
"c 	c #DCA670",
"d 	c #DBA671",
"e 	c #DAA874",
"f 	c #DCA872",
"g 	c #DAA76F",
"h 	c #D7A66D",
"i 	c #D3A36C",
"j 	c #DCA66F",
"k 	c #DBA672",
"l 	c #D7A36F",
"m 	c #CA9763",
"n 	c #BA8753",
"o 	c #996632",
"p 	c #BB8D5A",
"q 	c #CF9E6B",
"r 	c #D5A16D",
"s 	c #D7A46F",
"t 	c #CA9864",
"u 	c #BE8B58",
"v 	c #A16A34",
"w 	c #9F6A34",
"x 	c #9A6732",
"y 	c #8C5B29",
"z 	c #8A5C2A",
"A 	c #895C2A",
"B 	c #AD7F51",
"C 	c #C49361",
"D 	c #D5A26E",
"E 	c #D6A272",
"F 	c #D9A672",
"G 	c #CF9A67",
"H 	c #C18D5A",
"I 	c #A26935",
"J 	c #A16935",
"K 	c #8B5C29",
"L 	c #8A5C2B",
"M 	c #8A5B2B",
"N 	c #8B5C2B",
"O 	c #B88756",
"P 	c #CD9B68",
"Q 	c #DBA66F",
"R 	c #DAA870",
"S 	c #A16933",
"T 	c #A06A35",
"U 	c #A16A35",
"V 	c #A26934",
"W 	c #996732",
"X 	c #8A5C29",
"Y 	c #8B5B2B",
"Z 	c #A97C4C",
"` 	c #BF8F5F",
" .	c #D4A06C",
"..	c #D59557",
"+.	c #D39658",
"@.	c #CD9255",
"#.	c #C2874C",
"$.	c #A26A33",
"%.	c #895D28",
"&.	c #D39558",
"*.	c #D49559",
"=.	c #D19559",
"-.	c #D29557",
";.	c #D29559",
">.	c #D0945A",
",.	c #C98D53",
"'.	c #A16934",
").	c #A26933",
"!.	c #8B5B29",
"~.	c #8B5B2A",
"{.	c #895C2B",
"].	c #8A5B2A",
"^.	c #8C5C2B",
"/.	c #B8824C",
"(.	c #C98F57",
"_.	c #D1955A",
":.	c #D39559",
"<.	c #D6965A",
"[.	c #D09459",
"}.	c #D3955A",
"|.	c #D2955C",
"1.	c #CF9259",
"2.	c #C1864F",
"3.	c #A06A36",
"4.	c #986735",
"5.	c #885D2B",
"6.	c #885C2B",
"7.	c #C68D56",
"8.	c #D2955B",
"9.	c #D49555",
"0.	c #D39457",
"a.	c #D29659",
"b.	c #D2975A",
"c.	c #D1965A",
"d.	c #D0955A",
"e.	c #C98E54",
"f.	c #895D2C",
"g.	c #C28B50",
"h.	c #D0955B",
"i.	c #D39657",
"j.	c #D69558",
"k.	c #D49558",
"l.	c #D89457",
"m.	c #D29658",
"n.	c #D29657",
"o.	c #D69456",
"p.	c #D29558",
"q.	c #C79157",
"r.	c #CE9459",
"s.	c #D49554",
"t.	c #D29656",
"u.	c #D39656",
"v.	c #D39557",
"w.	c #D49657",
"x.	c #D59457",
"y.	c #D4955A",
"z.	c #D39758",
"A.	c #B07E4B",
"B.	c #D0945E",
"C.	c #D0975B",
"D.	c #D19659",
"E.	c #D19458",
"F.	c #D2965A",
"G.	c #D1965B",
"H.	c #D3965A",
"I.	c #B98752",
"J.	c #D3975A",
"K.	c #D69556",
"L.	c #CC9056",
"M.	c #D2955A",
"N.	c #D3955B",
"O.	c #C28650",
"P.	c #C58D53",
"Q.	c #CA9258",
"R.	c #D49659",
"S.	c #C48950",
"T.	c #B27E48",
"U.	c #C99055",
"V.	c #D2965C",
"W.	c #B9814B",
"X.	c #C68C53",
"Y.	c #A26C36",
"Z.	c #D39659",
"`.	c #D59558",
" +	c #D49557",
".+	c #C38B55",
"++	c #AD733F",
"@+	c #AD723F",
"#+	c #AD7A46",
"$+	c #C58F56",
"%+	c #D2945B",
"&+	c #D29556",
"*+	c #C88E57",
"=+	c #BF834A",
"-+	c #C98C50",
";+	c #A97138",
">+	c #C38B56",
",+	c #D19757",
"'+	c #B57D45",
")+	c #BE8145",
"!+	c #AD753B",
"~+	c #AF753A",
"{+	c #B1753C",
"]+	c #B0763D",
"^+	c #AF773E",
"/+	c #C18C55",
"(+	c #D19457",
"_+	c #AF7843",
":+	c #C38347",
"<+	c #CB8C4F",
"[+	c #AC7237",
"}+	c #A9733D",
"|+	c #CE9757",
"1+	c #C28D58",
"2+	c #B47C44",
"3+	c #BB7F44",
"4+	c #C08041",
"5+	c #C28143",
"6+	c #C18346",
"7+	c #B1753D",
"8+	c #B1763A",
"9+	c #B2763A",
"0+	c #B4783C",
"a+	c #B5793D",
"b+	c #B5793F",
"c+	c #B47A41",
"d+	c #B1783F",
"e+	c #BA8046",
"f+	c #C48447",
"g+	c #CA8D52",
"h+	c #B07438",
"i+	c #B2763B",
"j+	c #BC7E41",
"k+	c #BE7F41",
"l+	c #BD7F42",
"m+	c #BE8043",
"n+	c #C08244",
"o+	c #C28447",
"p+	c #C38548",
"q+	c #B2773E",
"r+	c #B3773B",
"s+	c #B77B3F",
"t+	c #B87C40",
"u+	c #B97D41",
"v+	c #BA7D41",
"w+	c #BB7D41",
"x+	c #B57C44",
"y+	c #A6713D",
"z+	c #B47B42",
"A+	c #BC8044",
"B+	c #C38447",
"C+	c #CA8E53",
"D+	c #B3783E",
"E+	c #B2773D",
"F+	c #B67C41",
"G+	c #B77E44",
"H+	c #B97E43",
"I+	c #BE7F42",
"J+	c #C08245",
"K+	c #C48649",
"L+	c #C5874A",
"M+	c #B47840",
"N+	c #B67A3E",
"O+	c #B67A3F",
"P+	c #B97C40",
"Q+	c #BB7C3F",
"R+	c #BC7D40",
"S+	c #BC7F42",
"T+	c #BF7F40",
"U+	c #BF7F41",
"V+	c #CB8F53",
"W+	c #B77C41",
"X+	c #B97D43",
"Y+	c #BD7E41",
"Z+	c #BD8042",
"`+	c #BF8144",
" @	c #C6884B",
".@	c #C7894C",
"+@	c #B67B3E",
"@@	c #B87B3E",
"#@	c #B97C3F",
"$@	c #BA7C3F",
"%@	c #BB7D40",
"&@	c #BF8042",
"*@	c #BF8143",
"=@	c #C4874A",
"-@	c #CA8F53",
";@	c #B87B3F",
">@	c #B87C41",
",@	c #BB7D42",
"'@	c #BF7D43",
")@	c #C07E40",
"!@	c #C18440",
"~@	c #C28349",
"{@	c #C88A4D",
"]@	c #B77D3F",
"^@	c #BA7D40",
"/@	c #CC8E53",
"(@	c #B87D41",
"_@	c #BF7D42",
":@	c #BE7F43",
"<@	c #BB8143",
"[@	c #C99361",
"}@	c #C79151",
"|@	c #C58549",
"1@	c #C98B4E",
"2@	c #CB8D50",
"3@	c #B97E41",
"4@	c #BA7E42",
"5@	c #BB7F43",
"6@	c #C8894D",
"7@	c #D08E54",
"8@	c #BE8B4F",
"9@	c #E8DED4",
"0@	c #C7874A",
"a@	c #CA8C4F",
"b@	c #CD8F52",
"c@	c #BF7E40",
"d@	c #BC7E42",
"e@	c #BB8042",
"f@	c #BC8043",
"g@	c #BE8144",
"h@	c #CF8F53",
"i@	c #BF7F43",
"j@	c #C88949",
"k@	c #C78C4D",
"l@	c #CA8D50",
"m@	c #CA8F51",
"n@	c #CC9051",
"o@	c #D09253",
"p@	c #BD8243",
"q@	c #BD8445",
"r@	c #C08447",
"s@	c #CE8F52",
"t@	c #C07E43",
"u@	c #CC8A4F",
"v@	c #CD8C4E",
"w@	c #CE8F4E",
"x@	c #CD924E",
"y@	c #CC9352",
"z@	c #CE9053",
"A@	c #C38145",
"B@	c #C98F47",
"C@	c #CC8F55",
"D@	c #C7884C",
"E@	c #C78A4D",
"F@	c #C68A4D",
"G@	c #CC8A4C",
"H@	c #CB8B4E",
"I@	c #CC8F50",
"J@	c #CF9052",
"K@	c #C28245",
"L@	c #C7955F",
"M@	c #C78A4A",
"N@	c #CA8D4B",
"O@	c #C68C52",
"P@	c #CA8F50",
"Q@	c #CC914F",
"R@	c #CD9156",
"S@	c #C4864A",
"T@	c #C58649",
"U@	c #C4884C",
"                                                                                                ",
"                                                                                                ",
"                                                                                                ",
"                                                                                                ",
"                                                                                                ",
"                                                                                                ",
"                                                                                                ",
"                                                                                                ",
"                                                                                                ",
"                                                                                                ",
"                                                                                                ",
"                            . . . . .                     . . . . .                             ",
"                  . . . . . + @ # $ % .               . . & * = - ; . . . .                     ",
"          . . . . > # , ' ) # # # # # ! . .         . ~ , ) # # # # # { # ] . . . .             ",
"  . . . . ^ / ( $ # , , # # # # # # ; _ : < .   . . ; [ # # # # # # # # # } | 1 ] , . . . .     ",
"  . . = 2 3 1 - - $ 4 4 $ # # # # # ! 5 6 7 8 . 9 0 a b 1 # # # # # # # # @ c d # e @ f g h .   ",
"      . i j = # # # # # # # # # k l m n . . . o . . . p q 4 $ # # # # # # # # # # # # @ r .     ",
"        . . $ # # # # ) # s t u . . . . v v w x y z A . . . B C D { # # # # # # # # { q .       ",
"            . E $ F G H . . . . I I J v v v v x K L L L M N . . . . O P F $ = Q = R . .         ",
"              . . . . . S T T U v v v v v v V W X Y Y Y Y Y Y Y Y Y . . . Z `  .@ .             ",
"              . ..+.@.#.. . . $.v v v v v v V W X Y Y Y Y Y Y Y Y Y X %.%.. . . . .             ",
"            . &.*.=.-.-.;.>.,.. . . . U U '.).W X !.~.L {.L ].N ^.. . . /.(._.:.<..             ",
"          . [.&.&.&.&.&.&.&.&.}.|.1.2.. . . 3.4.5.A {.6.%.. . . . 7.8.&.&.&.&.&.+.9..           ",
"          . 0.&.&.&.&.&.&.&.&.:.a.a.b.c.d.e.. . . f.. . . g.h.a.i.j.k.&.&.&.&.&.+.i.0..         ",
"        . l.}.:.&.&.&.&.&.&.&.&.m.m.m.n.+.i.o.p.q.. r.s.t.u...m.a.*.k.&.&.&.&.&.v.i.p.w..       ",
"      . x.y.}.k.&.&.&.&.&.&.&.&.&.&.&.&.&.&.i.z.A.. B.i.&.&.&.&.&.&.&.&.&.&.&.&.a.C.D.+.E..     ",
"      . . . . F.G.H.&.&.&.&.&.&.&.&.&.&.&.&.:.;.. I.. J.&.&.&.&.&.&.&.&.&.&.&.&...K.p.. . .     ",
"            . . . L.M.p.v.v.&.:.:.&.&.&.&.:.N.O.. P.. Q.v.&.&.&.&.:.k.k.R.p.H._.S.. .           ",
"                . . . T.U.G.V.|.}.&.v.&.&.k.}.. W.X.Y.. Z.k.&.i.&.N.`. +d..+. . .               ",
"                . ++@+. . . #+$+%+p.&+&.&.&.*+. =+-+;+. >+,+k.&.Z.8..+. . . '+)+.               ",
"                . !+~+{+]+^+. . . . /+(+:.M.. _+:+<+[+}+. |+:.1+. . . 2+3+4+5+6+.               ",
"                . 7+8+9+0+0+a+b+c+d+. . . . . e+f+g+h+i+. . . . . j+k+l+m+n+o+p+.               ",
"                . q+r+0+a+a+s+s+t+u+v+w+x+y+z+A+B+C+9+0+D+E+F+G+H+l+I+m+J+o+K+L+.               ",
"                . M+a+N+O+s+t+P+Q+R+j+S+k+T+U+I+K+V+0+a+O+W+X+Y+k+Z+`+J+o+K+ @.@.               ",
"                . +@s+s+@@#@$@%@R+l+l+S+I+&@*@`+=@-@N+;@>@,@'@)@`+!@~@p+K+ @.@{@.               ",
"                . ]@u+u+^@%@j+j+l+l+l+m+`+J+6+6+ @/@s+(@_@:@<@[@[@}@|@L+ @{@1@2@.               ",
"                . 3@4@5@S+j+l+l+l+m+`+J+6+6+o+o+6@7@4@8@[@[@9@9@9@[@0@.@{@a@2@b@.               ",
"                . c@d@e@f@S+Z+g@`+J+J+o+p+p+K+K+1@h@i@[@9@9@9@9@9@[@j@k@l@m@n@o@.               ",
"                  . . . f@p@q@r@6+o+o+K+L+L+ @ @a@s@t@[@9@9@9@9@9@[@u@v@w@x@y@. .               ",
"                        . . . . p+K+K+L+ @ @.@{@2@z@A@[@9@9@9@[@[@B@v@C@. . .                   ",
"                                . . . D@E@F@G@H@I@J@K@[@[@L@M@N@. . . .                         ",
"                                      . . . O@P@Q@R@S@T@U@. . .                                 ",
"                                            . . . . . . .                                       ",
"                                                                                                ",
"                                                                                                ",
"                                                                                                ",
"                                                                                                ",
"                                                                                                "};
