/* XPM */
static char * cat_xpm[] = {
"48 48 97 2",
"  	c #FFFFFF",
". 	c #000000",
"+ 	c #0B0B0B",
"@ 	c #050505",
"# 	c #181818",
"$ 	c #141414",
"% 	c #949494",
"& 	c #EEEEEE",
"* 	c #F7F7F7",
"= 	c #F1F1F1",
"- 	c #CDCDCD",
"; 	c #A9A9A9",
"> 	c #838383",
", 	c #0F0F0F",
"' 	c #989898",
") 	c #D6D6D6",
"! 	c #E9E9E9",
"~ 	c #F3F3F3",
"{ 	c #F9F9F9",
"] 	c #C9C9C9",
"^ 	c #0A0A0A",
"/ 	c #B8B8B8",
"( 	c #FCFCFC",
"_ 	c #F8F8F8",
": 	c #D5D5D5",
"< 	c #D0D0D0",
"[ 	c #797979",
"} 	c #B6B6B6",
"| 	c #FDFDFD",
"1 	c #E1E1E1",
"2 	c #DDDDDD",
"3 	c #B0B0B0",
"4 	c #252525",
"5 	c #131313",
"6 	c #959595",
"7 	c #FAFAFA",
"8 	c #FBFBFB",
"9 	c #E7E7E7",
"0 	c #919191",
"a 	c #E2E2E2",
"b 	c #010101",
"c 	c #040404",
"d 	c #D1D1D1",
"e 	c #DADADA",
"f 	c #020202",
"g 	c #0D0D0D",
"h 	c #090909",
"i 	c #060606",
"j 	c #070707",
"k 	c #B9B9B9",
"l 	c #F4F4F4",
"m 	c #696969",
"n 	c #CFCFCF",
"o 	c #030303",
"p 	c #A4A4A4",
"q 	c #F0F0F0",
"r 	c #D8D8D8",
"s 	c #1D1D1D",
"t 	c #8E8E8E",
"u 	c #595959",
"v 	c #C5C5C5",
"w 	c #DCDCDC",
"x 	c #EBEBEB",
"y 	c #9E9E9E",
"z 	c #909090",
"A 	c #F6F6F6",
"B 	c #ABABAB",
"C 	c #D9D9D9",
"D 	c #656565",
"E 	c #606060",
"F 	c #636363",
"G 	c #888888",
"H 	c #D7D7D7",
"I 	c #393939",
"J 	c #CACACA",
"K 	c #E0E0E0",
"L 	c #191919",
"M 	c #707070",
"N 	c #B7B7B7",
"O 	c #CECECE",
"P 	c #A8A8A8",
"Q 	c #9B9B9B",
"R 	c #B2B2B2",
"S 	c #DEDEDE",
"T 	c #2C2C2C",
"U 	c #D4D4D4",
"V 	c #EFEFEF",
"W 	c #D3D3D3",
"X 	c #686868",
"Y 	c #A1A1A1",
"Z 	c #FEFEFE",
"` 	c #C4C4C4",
" .	c #7E7E7E",
"..	c #1B1B1B",
"+.	c #121212",
"@.	c #1A1A1A",
"#.	c #171717",
"                                                                                                ",
"                                                                                                ",
"                                                                                                ",
"                                                                                                ",
"                        . .                               .                                     ",
"                      . . . .                           . . .                                   ",
"                      . . . .                         . . . . .                                 ",
"                    . . . . . .                       + . . . .                                 ",
"                    . . . . . .                     . . . . . . .                               ",
"                  . . . . . . . .                   @ . . . . . .                               ",
"                . . . . . . . . .                 . . . . . . # . .                             ",
"            . . . . . . . . . . . . . . . . . . . . . . . . . . . . .                           ",
"          . $ % & * = - ; > , . . . . . . . . . . . . ' ) ! ~ { { ] . .                         ",
"        . ^ / ( _ . . . : { < [ . . . . . . . . . . } | 1 . . . 2 | 3 4                         ",
"        5 6 7 & . ^ . . . . 8 9 . . . . . . . . . 0 7 a . b b c . d ~ . .                       ",
"      . . e { . f g h i j f k l m . . . . . . . . n 7 . o b b f c . _ p .                       ",
"      . . q r . f o s f f c . & t . . . . . . . u { a . b i b h f . = v . .                     ",
"      c . { w . o f @ b b , . x y . . . . . . . z ( 2 . f o f ^ c . A B . .                     ",
"      . . { C . f f . b b f . & D . . . . . . . E _ { . c f f o i . ~ F . .                     ",
"      . . ~ ~   . . . . . G = H I . . . . . . . . J | K . g L . . l M . . .                     ",
"      . . N 8 _ O P Q R S 8 l ' . . . . . . . . . T B C a U e V W X . . . . .                   ",
"      . . . Y A Z Z ( { q `  .. . . . . . . . . . . . . ... +.@.. . . . . . .                   ",
"      . . . . . . . . . . . . . . . . . . . . . . . . . . . . . . . . . . . .                   ",
"      . . . . . . . . . . . . . . . . . . . . . . . . . . . . . . . . . . . .                   ",
"      . . . . . . . . . . . . . . . . . . . . . . . . . . . . . . . . . . . .                   ",
"      . . . . . . . . . . . . . . . . . . . . . . . . . . . . . . . . . . . . .                 ",
"      . . . . . . . . . . . . . . . . . . . . . . . . . . . . . . . . . . . . .                 ",
"      . . . . . . . . . . . . . . . . . . . . . . . . . . . . . . . . . . . . .                 ",
"      . . . . . . . . . . . . . . . . . . . . . . . . . . . . . . . . . . . . .                 ",
"      . . . . . . . . . . . . . . . . . . . . . . . . . . . . . . . . . . . . .                 ",
"      . . . . . . . . . . . . . . . . . . . . . . . . . . . . . . . . . . . . .                 ",
"    { . . . . . . . . . . . . . . . . . . . . . . . . . . . . . . . . . . . . .                 ",
"      . . . . . . . . . . . . . . . . . . . . . . . . . . . . . . . . . . . . .     |           ",
"      . . . . . . . . . . . . . . . . . . . . . . . . . . . . . . . . . . . . . . . . . . . .   ",
"      . . . . . . . . . . . . . . . . . . . . . . . . . . . . . . . . . . . . . . . . . . . .   ",
"      . . . . . . . . . . . . . . . . . . . . . . . . . . . . . . . . . . . . . . . . . . . .   ",
"        . . . . . . . . . . . . . . . . . . . . . . . . . . . . . . . . . . . . . . . . . .     ",
"        . . . . . . . . . . . . . . . . . . . . . . . . . . , . . . . . . . . . . . . . .       ",
"          . . . . . . . +.. . . . . . . . . . . . . . . . . . . . . . .                         ",
"                . . . . .                         . . . . .                                     ",
"                  . . #..                         . . . .                                       ",
"                                                    . .                                         ",
"                                                                                                ",
"                                                                                                ",
"                                                                                                ",
"                                                                                                ",
"                                                                                                ",
"                                                                                                "};
