/* XPM */
static char * plant_bis1_xpm[] = {
"48 48 87 1",
" 	c #FFFFFF",
".	c #2C5537",
"+	c #4A584C",
"@	c #507356",
"#	c #426046",
"$	c #2B4732",
"%	c #878787",
"&	c #9F9F9F",
"*	c #426B4B",
"=	c #94A19A",
"-	c #657C6D",
";	c #4E8758",
">	c #77BF83",
",	c #7FB489",
"'	c #6BB978",
")	c #60A66B",
"!	c #31783D",
"~	c #407049",
"{	c #6FC17D",
"]	c #8CC695",
"^	c #6CBB79",
"/	c #708A74",
"(	c #4EA15C",
"_	c #358242",
":	c #589862",
"<	c #60B16E",
"[	c #7D9C82",
"}	c #3B914A",
"|	c #447F4E",
"1	c #2A6534",
"2	c #1A3F20",
"3	c #5F8C67",
"4	c #2E713A",
"5	c #388946",
"6	c #3D964C",
"7	c #24592D",
"8	c #8D8D8D",
"9	c #4A9657",
"0	c #606060",
"a	c #22522A",
"b	c #7D7D7D",
"c	c #6CA876",
"d	c #3A9049",
"e	c #0D3915",
"f	c #386042",
"g	c #2D5738",
"h	c #477B50",
"i	c #90A894",
"j	c #17371C",
"k	c #122B16",
"l	c #193020",
"m	c #040705",
"n	c #1D3824",
"o	c #FDFDFD",
"p	c #718274",
"q	c #5C7662",
"r	c #0B1A0D",
"s	c #0F2313",
"t	c #656D66",
"u	c #6C6C6C",
"v	c #36553F",
"w	c #777777",
"x	c #35415B",
"y	c #131E2A",
"z	c #47516A",
"A	c #6A7081",
"B	c #424F6F",
"C	c #596175",
"D	c #242C3D",
"E	c #272A27",
"F	c #545A69",
"G	c #364467",
"H	c #61656B",
"I	c #616E90",
"J	c #394054",
"K	c #494949",
"L	c #6F5532",
"M	c #483720",
"N	c #3F301D",
"O	c #3E3E3E",
"P	c #556284",
"Q	c #1A1F25",
"R	c #313131",
"S	c #57442F",
"T	c #2B2113",
"U	c #282F39",
"V	c #353535",
"                                                ",
"                                                ",
"                                                ",
"                                                ",
"                          .+@#$$%               ",
"              &*@@*=    -;>,')))                ",
"            !~){>]^)   /'',(_=&                 ",
"           :^^<''<<^) [')}|12                   ",
"          +'(<3@456(<~)(}7~:::&$;;8             ",
"          )9;@  0aa16(|54)<^^^):~9}/            ",
"         -)@   bc))9467a)^<9999<75}2            ",
"         %%   :''9}(:|da'<6d12a6975e            ",
"              :'9|b/)|!f<}51_}!2!ffg            ",
"             ;<5!0  =-2<<5115_~~;^'^3           ",
"             f;hh;1[ i2<}14!1|'^'))'{3          ",
"            ;;<<(;1ae4a(5j!!|')((}())'3         ",
"          :)^<:~@  k$lm_f!1|')6d5@@|}(<%        ",
"         c^<96~   [:~nka!_~(9d7g8  &#5(c        ",
"       oc'<6}1   p(}1$l$2!l2+0;)3    %9:        ",
"       :^<6}dq   @gga$l.rl.0  =c9_    %!        ",
"      o9<6653  [h'<<(a$.sjt    q<9!    8        ",
"       )9d63  i<<)5![u$vn$      :<}e            ",
"      ;'94@  i)<651a  t#gt      f<(!            ",
"      3cq    ;<9:1!4  %#.%       :)}.           ",
"       *    [<()@nd!  %#v%       @(}v           ",
"            ~':- +_=  %##%        ;(v           ",
"            @[u  +|o  %#.%        3(#           ",
"            b    8    b#.%         q%           ",
"                     8f*.w                      ",
"                  oxxyf*.yxxzo                  ",
"               ABBBCzDff.EzFCBBGH               ",
"              AxFIJKLMvg.NLLOJBxxA              ",
"             oGPPJQRSN$.$TLSEQDPPG              ",
"              APIPPIzUUUUUVzIPPICA              ",
"              &GBBBIIIIIIIIIIBBBB               ",
"               GBBBBBPIIIIPBBBBBG               ",
"               GBBBBBBBBBBBBBBBBG               ",
"               GBBBBBBBBBBBBBBBBG               ",
"               wBBBBBBBBBBBBBBBBw               ",
"               %BBBBBBBBBBBBBBBB%               ",
"               8BBBBBBBBBBBBBBBB%               ",
"                FBBBBBBBBBBBBBBz                ",
"                wBBBBBBBBBBBBBBw                ",
"                ozBBBBBBBBBBBBCo                ",
"                 oFzBBBBBBBBzCo                 ",
"                    DDDDDDDD                    ",
"                                                ",
"                                                "};
