/* XPM */
static char * rug2_xpm[] = {
"48 48 207 2",
"  	c #CDC8C2",
". 	c #D7D2CC",
"+ 	c #F3EEE8",
"@ 	c #E7E2DC",
"# 	c #CCC7C1",
"$ 	c #F9F4EE",
"% 	c #BAB7B0",
"& 	c #D0CDC6",
"* 	c #D7D4CD",
"= 	c #F9F6EF",
"- 	c #E5E2DB",
"; 	c #CDCAC3",
"> 	c #ECE9E2",
", 	c #CECBC4",
"' 	c #D8D5CE",
") 	c #DCD9D2",
"! 	c #E6E3DC",
"~ 	c #D1CEC7",
"{ 	c #CBC8C1",
"] 	c #D6D3CC",
"^ 	c #F4EFE9",
"/ 	c #D4CFC9",
"( 	c #CAC5BF",
"_ 	c #C0BBB5",
": 	c #D6D1CB",
"< 	c #DAD5CF",
"[ 	c #E3DED8",
"} 	c #C6C1BB",
"| 	c #C4BFB9",
"1 	c #DFDAD4",
"2 	c #D2CDC7",
"3 	c #CEC9C3",
"4 	c #E5E0DA",
"5 	c #D8D3CD",
"6 	c #E0DBD5",
"7 	c #E1DCD6",
"8 	c #C7C2BC",
"9 	c #FAF5EF",
"0 	c #BAB5AF",
"a 	c #C5C0BA",
"b 	c #BBB6B0",
"c 	c #BDB8B2",
"d 	c #C9C4BE",
"e 	c #A7A29C",
"f 	c #87827C",
"g 	c #A3A099",
"h 	c #9E9B94",
"i 	c #96938C",
"j 	c #B0ADA6",
"k 	c #AFACA5",
"l 	c #AEABA4",
"m 	c #C1BEB7",
"n 	c #9C9992",
"o 	c #ACA9A2",
"p 	c #C5C2BB",
"q 	c #B4B1AA",
"r 	c #B5B2AB",
"s 	c #BEBBB4",
"t 	c #B2AFA8",
"u 	c #B3B0A9",
"v 	c #B2ADA7",
"w 	c #ADA8A2",
"x 	c #9D9892",
"y 	c #A29D97",
"z 	c #A9A49E",
"A 	c #AFAAA4",
"B 	c #AAA59F",
"C 	c #BEB9B3",
"D 	c #B1ACA6",
"E 	c #B4AFA9",
"F 	c #ACA7A1",
"G 	c #B0ABA5",
"H 	c #EBE6E0",
"I 	c #DCD7D1",
"J 	c #FFFEF8",
"K 	c #D5D2CB",
"L 	c #F4F1EA",
"M 	c #E8E5DE",
"N 	c #D9D6CF",
"O 	c #EEEBE4",
"P 	c #EAE7E0",
"Q 	c #DEDBD4",
"R 	c #DDDAD3",
"S 	c #ECE7E1",
"T 	c #C1BCB6",
"U 	c #F7F2EC",
"V 	c #D5D0CA",
"W 	c #D3CEC8",
"X 	c #DDD8D2",
"Y 	c #E8E3DD",
"Z 	c #C3BEB8",
"` 	c #CFCAC4",
" .	c #E2DDD7",
"..	c #C8C3BD",
"+.	c #FCF7F1",
"@.	c #99948E",
"#.	c #BDBAB3",
"$.	c #A5A29B",
"%.	c #9D9A93",
"&.	c #9B9891",
"*.	c #B6B3AC",
"=.	c #C6C3BC",
"-.	c #9A9790",
";.	c #A7A49D",
">.	c #C9C6BF",
",.	c #B9B6AF",
"'.	c #A9A69F",
").	c #B8B5AE",
"!.	c #BCB7B1",
"~.	c #A8A39D",
"{.	c #B8B3AD",
"].	c #C2BDB7",
"^.	c #9B9690",
"/.	c #B9B4AE",
"(.	c #9E9993",
"_.	c #FDF8F2",
":.	c #C2BFB8",
"<.	c #DFDCD5",
"[.	c #E3E0D9",
"}.	c #E7E4DD",
"|.	c #CFCCC5",
"1.	c #E4E1DA",
"2.	c #E0DDD6",
"3.	c #F1EEE7",
"4.	c #EAE5DF",
"5.	c #D9D4CE",
"6.	c #D1CCC6",
"7.	c #CBC6C0",
"8.	c #D0CBC5",
"9.	c #B7B2AC",
"0.	c #B5B0AA",
"a.	c #E4DFD9",
"b.	c #A19E97",
"c.	c #ABA8A1",
"d.	c #A6A39C",
"e.	c #CAC7C0",
"f.	c #BCB9B2",
"g.	c #C7C4BD",
"h.	c #C4C1BA",
"i.	c #C0BDB6",
"j.	c #96918B",
"k.	c #B6B1AB",
"l.	c #9A958F",
"m.	c #AEA9A3",
"n.	c #938E88",
"o.	c #97928C",
"p.	c #ABA6A0",
"q.	c #F5F0EA",
"r.	c #D3D0C9",
"s.	c #D2CFC8",
"t.	c #BBB8B1",
"u.	c #D4D1CA",
"v.	c #F6F1EB",
"w.	c #E6E1DB",
"x.	c #E9E4DE",
"y.	c #FEF9F3",
"z.	c #EDE8E2",
"A.	c #FFFDF7",
"B.	c #DBD6D0",
"C.	c #BFBAB4",
"D.	c #B1AEA7",
"E.	c #BFBCB5",
"F.	c #DBD8D1",
"G.	c #F0EDE6",
"H.	c #EEE9E3",
"I.	c #DAD7D0",
"J.	c #EDEAE3",
"K.	c #FFFEF7",
"L.	c #EFEAE4",
"M.	c #9C9791",
"N.	c #B3AEA8",
"O.	c #94918A",
"P.	c #A8A59E",
"Q.	c #AAA7A0",
"R.	c #E1DED7",
"S.	c #FFFDF6",
"T.	c #DED9D3",
"U.	c #F1ECE6",
"V.	c #948F89",
"W.	c #A5A09A",
"X.	c #A09D96",
"Y.	c #9F9C95",
"Z.	c #A29F98",
"`.	c #8F8C85",
" +	c #A6A19B",
".+	c #A19C96",
"++	c #F8F3ED",
"@+	c #E2DFD8",
"#+	c #F8F5EE",
"$+	c #918C86",
"%+	c #908B85",
"&+	c #A09B95",
"*+	c #8B8680",
"=+	c #FFFCF6",
"-+	c #9F9A94",
";+	c #F0EBE5",
">+	c #FFFBF5",
",+	c #95908A",
"'+	c #89847E",
")+	c #A39E98",
"!+	c #A49F99",
"~+	c #79746E",
"{+	c #F2EDE7",
"]+	c #98938D",
"^+	c #FFFAF4",
"/+	c #928D87",
"(+	c #FBF6F0",
"  . + @ # $ % & * = - ; > , * ' , ) ! ~ { ] ^ / ( ^ _ : < [ } } : ( | 1 2 3 4 5 5 6 7 8 / 9 0 a ",
"b c d e f c g h i j k l m n o p q r s j t u / v w 6 x y z } A B C z w | D w E F G C E z _ H v F ",
"w C [ I   J K ) ! > ] ' L M N O K ] P Q R Q S T b U # V W X : X Y Z : + ` 3 Y 5 :  .5 ... +.. ..",
"w v b B @.} #.$.%.&.&.*.=.j % *.-.;.>.,.'.)...e B 2 E _ !.F ~.{.].^.w < A D | F ~.c 3 /._ 7 e (.",
"2 < 5 / V _.:.:.<.[.N }.! |.1.2., ~ 3.1.>.1.4.2 @ _.5.6.5 7./ 5.H d !.+ 7.d J @ 6.8.@ | V J V W ",
"{.9.0.T d a.r b.c.d.;.e.|.f.).e.g.t h.m g i./.j.0.W k.l.z z k.m.  /.n.2 0.D } D G D # o.B Y 0.v ",
"8 p.7.v C q.r r.[.s.s [.}.[.s M =.t.Q h.; u.v.} C w.5.# x.X 1 6 < 2 8 y.C [ z.8.. 5.I /.  A._ B.",
"W d 4 C.Z + D.% :.E.% Q F.u.=.G.e.).~ k r f.C.D 2 7 ].!.| 9.G C b D z w.m.0.W 0.E c d w C z.~.( ",
"0 p._ y {.H.).).f.E.,.~ h.t.g r.).j K s ; N 5.C.I V !.  V . ..2 3 ..b w.{.~. ...C ( B.T # q.Z W ",
"B.2 4 ..: 9 f.>.I.<.] J.[.R * K.R , J.|.] ) < C V 6 3   W 5 } | ..: 6.x.6.d / d b 7.5.C } L.8.2 ",
"A M.N.~.c B.O.P.).q '.=.s u Q.& Q.b.>.D.).f.k.v C.2 /.y 0.k.d T } | c 8 /.N.E C.v ..6.E C.H A _ ",
"1 # x.: 5.S F.R.R.] |.3.1.~ <.S.K >.3.I.Q <.a.[ V T.W ` z.[   6.a.# . U.@ [ C . | X 7 | # $ ].3 ",
"D V.9.W.w W g X.Y.b.g h.*.;.Z.h.-.`.).g c.k c m.F b T Z ..T B ~.C.j.p.C.W.z  +_ .+b Z e B 6. +p.",
"< 3 $ 5 8.++' u.N @+R G.<.* u.#+, i.! |.I.R.B.!.8.6 < 6.` L.B.d Y ..H +   4 3 w.C I S . . 9 6.7 ",
"8.k.A /.~.a a $+v ..%+l.9. +m.d E e E &+C.!.C *+E z 5.C.c ..0 N.].!.| {...G 9.B N...c l.!....+~.",
"2 | @ V d =+I 6.B.C Y q.3 ..B.+ B.[ I | 2 6.[ 3 7.8 / A : 8 7.a 6 6.0 ++| 2 X 3 ( 1 5.: [ w.W [ ",
"( A V G A T.0.C.0 !.-+( 8.0.0 Y 9.6.z.2 /.  . 2 8 5   b x.d Z !.# a 8.` } 6.8.( d 7.0.Z Z 3 F C ",
"8 B 8 _ B.v.a G ^ ( 5 z.6.C.{.x.z 0 q.V B 0 ` D 0.  E _ 2 b 0 /.a } 8 W E 6.0.A T c /.8   a.].d ",
"7 # 6 3 } w._   # 8.0. .B.7.2 @ } 7.;+< . ].^ d Z 4.Z W S @ 0 a.4.| x.W + ( 6 T 2 a I     B.# a ",
"B x C.m. +>+-+,+@ G v B.T z n.1 e '+2 z ^.C.Z F ^.: )+o.} a y v 8.k.M.a.!+/.T ~.C.9.< 0.} X 0 9.",
"6.Y ;+8.b q.W B.2 T B.J < 8.H U.[ w.3 C  .` v.1 < J < }  .x.( ( 4 . 8.6 V B.[ I 4 1 S b W ;+W ` ",
"C.V w ~.C ..9.~+T b l._ 9.^.C.. B /.0 z m.C } ,+F a B c !.< ^.e c  +&+G C B 0 /.F 0.a )+0.8 v m.",
"_ A X F 8 U 6.8.6.2 V 7.4 d | a 3 7 D z.b ..{+# . T.V : . S # 3 X 7.# 5.3 6 5 @ . 8 U.8.T.H.: C ",
"2 6.@ 0 _ w.8 7.3   .._ 1 d < }     } H ( 5   9.8 . W 8.# # 0 /.Z V 5.].N.C C } N.V ~.( 6.d 0 ^.",
"N.0.G l.G 4 F k.C.T G !+C !+_  +D ]+v E y v < a c d } d < : k.| 0 c 8 | _ G I T.C.C.a._ d J ( a.",
"2 : 8.9.a @ 6 T.< 5 Z a @   6 T.H.d Y 5 8 5 {+5.Z 6...]. .w.0 V < ..5 ;+5.0.a I 5 8.I 3 d . ( G ",
")+]+m.y c . /.9.0.T F 0.  e G 8   D 8 } z N.V _ /.. ..B _ ( z F C.)+E 5 v e 8 /.p./.W k.b >+a  .",
"  #  .} . q./ W : Y   5.H C / H.X 2 I L.a | U . : U.6 a I U I I + C d ^+B.5.w.4 x.V B.2 8.T.c [ ",
"].T ].B 9.H 3 ( Z 7.!+C Y # C.W b !./.# )+)+1 0.k.].0.m.| x.(.9.5 A v . A &+9.W ^.z a # M.>+n.w ",
"C.5 a.I 7.v.N.Z / 4.!.2 U < : H T.@ < [ | 3 H ( T.H  .T.T.q.| # 7 < 5.. Z 3 [ B.a.8 @ V 8.Y C 4.",
"5.| < 8.b ++| T | 2 ( X H.D p...< B.d @ T 1 8.1 ` 6   c 7.7 N./.d {.F 8 B B z .././+A @.~.1 A  +",
"!.0 C v !.I ].G v # 0 c 7 ( C.# 8.G E 5 /.C.8.0.D V B.T   S } # 5.# 8 @ 2 W X S   ( H T.7.+ I 8 ",
"..4 9 5.5.S . 5.B.7 W a.^ E 4.: 1 7. .w.( < . 2 B.w.} ].d z.C Z d C.c 1   7.3 : B 0.d 7.C U   /.",
".+W.3 W.V.` W E F 8 C.} T./.C # . z c 1 a !.d .+W.@ ` : # J a ( # } a [ 6.d V 4.3 / 5 ` _ + Z k.",
"6./ (+6 _ A.X ` I >+H.[ ++5 ^ 7 1 / T.z.6.H.@ T. .Y 5.L.4 (+| ` ` ` ` Y . ..].5 ..].` 7.8 S 5 ` ",
"C.k.v A W.} } E B D &+D / m.v 0 /.]+ +W A ~.Z F C ].( x m.7 D C.0 b /.# c p.p.a /.B A E } v.0 !.",
"V B.. 5 2 7.S !.{.4.@ I ^ 6 I W 4 2 x.L./ 6 Y a.2 5.+ < 5 ;+V [ 5 . W w.T.3 V U.[ w./ 2 8.>+_   ",
"D !+9.0 T C.| w p.].D v 2 9./.c B.!+0 C b } G c /+  ].p.x [ F b w w F Z a 0 8 8 ^.9.m.| 0.4 G C ",
"_ 5 L.< ].w.1 2 B.4 6.2 @ } 5.5 U # < Y V 4./ 6.6 L.4 # 5.+.. W 6 7 : Y 4.8.5.H / T./ 6 5.^+2 1 ",
"C C B./ p.k.d 8 _ B.C.b d ..~.E 1 F | T.d C.d _ {.8 | G W./.a E A C 0. +C G F 8.~.W.C.C.D ++9.w ",
"a E T T E x.5.k.G 4.9.} 1 8 6 c . {.# / | 2 !.# d 7 X 5.5.J T.H.[ W W 8.v...2  .. T.4.X . J X < ",
"T...T.5 0 + 2 W 0 T.7.2 6 2 a } 7 _ } {+` _ / ` m.  6.# 0 H.  8 3 8 V T < ].V 8 k.0.!.v _ @ } )+",
"0 !+!.b x T.T T V a.e 0.U C 3 I B.E z + 3 d X 6.E 6 Y X # J X   w.6.w.7 1 / 6.@ 8.6.(+T.d y.I X ",
"3 b  .H./.5.C 5 . I ..3 J : # X a.: ( U.A {...| b T.6.N.F z.T _ 5.~.9.6.T G !.8 z ~.C./.9.S ( N.",
"C v C C M.: ( D B 5 E a y.0 C.T.T.B !.U.C.]./ ].b : 5.| C.6 6 V 1 6.V / d . 5.4 T.x.< < 5.$ B.2 ",
"} W H [ 0 v.q.5.0 9 3 8.++W S 4.H.].H L.T T.: 6.. <   b 3 ;+/.: V ].C ( ( Z E 6 _ !./.9.~.4.| !+",
"{.w M.0 E E ` B A # v D < 0 k.-+z./.E S M.l.# -+0.} 5.k.W 4 X d 6 3 ( 8.9 w 8.$ 2 W I 7.a.+ 5 a ",
"I x.1 7 : S U I ` Y } 7 +.3 w.< (+| 8.J   X T.I X + 8.|   ++5 # 6.Z 8 # ( 0 ].@ C c ].&+b  .7.v "};
