/* XPM */
static char * wool_ball_xpm[] = {
"48 48 280 2",
"  	c #FFFFFF",
". 	c #FBFDFB",
"+ 	c #9BBA9A",
"@ 	c #8DA68E",
"# 	c #115054",
"$ 	c #074553",
"% 	c #0F5256",
"& 	c #0A464C",
"* 	c #10515B",
"= 	c #1D4C57",
"- 	c #A1BA9E",
"; 	c #9DBF9D",
"> 	c #88A38B",
", 	c #124C58",
"' 	c #177E8D",
") 	c #215D6B",
"! 	c #137F88",
"~ 	c #1E879E",
"{ 	c #96BA94",
"] 	c #8CA887",
"^ 	c #0D4E5B",
"/ 	c #147D87",
"( 	c #0E818C",
"_ 	c #197C8C",
": 	c #248EB6",
"< 	c #268DB0",
"[ 	c #7DA485",
"} 	c #137F8B",
"| 	c #147C90",
"1 	c #1689A0",
"2 	c #1D84A1",
"3 	c #278DAF",
"4 	c #288CBA",
"5 	c #2691BC",
"6 	c #84A985",
"7 	c #167884",
"8 	c #157F8B",
"9 	c #2087A4",
"0 	c #2292BA",
"a 	c #2690BC",
"b 	c #288AB8",
"c 	c #288DBA",
"d 	c #4098BF",
"e 	c #2A86B1",
"f 	c #0D2629",
"g 	c #187F8C",
"h 	c #147F8F",
"i 	c #298EB9",
"j 	c #2191BE",
"k 	c #278EBF",
"l 	c #268CB7",
"m 	c #2A8CB3",
"n 	c #3896BA",
"o 	c #248CB9",
"p 	c #5B7254",
"q 	c #84A588",
"r 	c #177E8F",
"s 	c #2088A5",
"t 	c #2A90B9",
"u 	c #2091BE",
"v 	c #288CB4",
"w 	c #3999BC",
"x 	c #2A8EB1",
"y 	c #1E82A6",
"z 	c #0E6A8D",
"A 	c #517580",
"B 	c #142F32",
"C 	c #178188",
"D 	c #118190",
"E 	c #298FB5",
"F 	c #2B90B7",
"G 	c #2291BC",
"H 	c #268FBE",
"I 	c #298CB2",
"J 	c #378BA4",
"K 	c #2F94BB",
"L 	c #1D7C9B",
"M 	c #2385AD",
"N 	c #278DC7",
"O 	c #627660",
"P 	c #7FA587",
"Q 	c #14747E",
"R 	c #0C7683",
"S 	c #207C9B",
"T 	c #207D9C",
"U 	c #1E7E99",
"V 	c #1A7C9A",
"W 	c #1C7899",
"X 	c #2690B7",
"Y 	c #2281AA",
"Z 	c #278FBD",
"` 	c #55777F",
" .	c #021724",
"..	c #157385",
"+.	c #107589",
"@.	c #0F788F",
"#.	c #2180A0",
"$.	c #1C7FA3",
"%.	c #1B80A3",
"&.	c #1B7DA6",
"*.	c #1C7EA5",
"=.	c #1E7D9F",
"-.	c #227EA7",
";.	c #207BA6",
">.	c #1F83B3",
",.	c #2591C2",
"'.	c #2487A4",
").	c #2394CC",
"!.	c #5C775E",
"~.	c #011626",
"{.	c #167284",
"].	c #0F767F",
"^.	c #10758D",
"/.	c #1C7DA3",
"(.	c #1E81A5",
"_.	c #1E82A5",
":.	c #1F82A5",
"<.	c #2181A6",
"[.	c #2280A5",
"}.	c #2085AC",
"|.	c #2896CC",
"1.	c #2A8EC6",
"2.	c #1C82A7",
"3.	c #1F85A7",
"4.	c #2990BD",
"5.	c #1F81B1",
"6.	c #248FC2",
"7.	c #1B7FA3",
"8.	c #60785A",
"9.	c #051625",
"0.	c #167589",
"a.	c #117590",
"b.	c #207EA6",
"c.	c #207FA5",
"d.	c #1F80AA",
"e.	c #1E80AA",
"f.	c #2082AD",
"g.	c #207FA8",
"h.	c #1F82AB",
"i.	c #1C82A8",
"j.	c #2490C0",
"k.	c #1F86B0",
"l.	c #2893C7",
"m.	c #298DC2",
"n.	c #61775A",
"o.	c #051725",
"p.	c #1B7788",
"q.	c #0E7687",
"r.	c #1A809F",
"s.	c #1B7FA5",
"t.	c #1C81AD",
"u.	c #2895C4",
"v.	c #2A92BC",
"w.	c #1D83A8",
"x.	c #2385A8",
"y.	c #278FBB",
"z.	c #2081A6",
"A.	c #2285AF",
"B.	c #298EB8",
"C.	c #1E86A6",
"D.	c #2597C5",
"E.	c #69765F",
"F.	c #83A888",
"G.	c #184A56",
"H.	c #14747D",
"I.	c #0E7889",
"J.	c #1F80A7",
"K.	c #227FA6",
"L.	c #227EA5",
"M.	c #2581A6",
"N.	c #2485AA",
"O.	c #2591BF",
"P.	c #2686AB",
"Q.	c #2993BF",
"R.	c #2C90BB",
"S.	c #2586AA",
"T.	c #2591B8",
"U.	c #132C30",
"V.	c #16707B",
"W.	c #127588",
"X.	c #2081AC",
"Y.	c #2B93CB",
"Z.	c #2D94BB",
"`.	c #2084AC",
" +	c #2691BF",
".+	c #2087AC",
"++	c #2990BE",
"@+	c #2484AC",
"#+	c #2793C2",
"$+	c #2590C1",
"%+	c #1E80AC",
"&+	c #6D7D68",
"*+	c #85A787",
"=+	c #114B51",
"-+	c #3888A9",
";+	c #338CB7",
">+	c #2592BF",
",+	c #2484AE",
"'+	c #2795C9",
")+	c #2991BE",
"!+	c #2281A3",
"~+	c #2384AA",
"{+	c #2A8FBA",
"]+	c #517B81",
"^+	c #0E2529",
"/+	c #14808D",
"(+	c #187B84",
"_+	c #308495",
":+	c #308BB4",
"<+	c #2E91BC",
"[+	c #2483B2",
"}+	c #2A8FC3",
"|+	c #2284B4",
"1+	c #2C92C8",
"2+	c #2B8EBF",
"3+	c #2383A0",
"4+	c #1E86AA",
"5+	c #5B7757",
"6+	c #7BB085",
"7+	c #27848F",
"8+	c #26859A",
"9+	c #2184AB",
"0+	c #2B93C0",
"a+	c #2F90BF",
"b+	c #1B82AB",
"c+	c #1F85B1",
"d+	c #2A91C2",
"e+	c #1E7CA4",
"f+	c #1F84A3",
"g+	c #218DAC",
"h+	c #1C8098",
"i+	c #496D66",
"j+	c #93AC93",
"k+	c #0F7A82",
"l+	c #1C8EA4",
"m+	c #2384AE",
"n+	c #2692BF",
"o+	c #1F89A5",
"p+	c #22869F",
"q+	c #157B8C",
"r+	c #22474C",
"s+	c #495848",
"t+	c #88AF87",
"u+	c #128192",
"v+	c #0D7385",
"w+	c #0E7885",
"x+	c #15788E",
"y+	c #2388A7",
"z+	c #117B86",
"A+	c #118391",
"B+	c #187985",
"C+	c #31312E",
"D+	c #423D3A",
"E+	c #565D53",
"F+	c #83A781",
"G+	c #82A687",
"H+	c #596052",
"I+	c #8AA985",
"J+	c #158886",
"K+	c #16828D",
"L+	c #137585",
"M+	c #127883",
"N+	c #1A7C7B",
"O+	c #362A2E",
"P+	c #31332E",
"Q+	c #3A3E37",
"R+	c #3B3E3D",
"S+	c #3B3E42",
"T+	c #3F3F38",
"U+	c #403C3E",
"V+	c #889F7F",
"W+	c #8AAB90",
"X+	c #0C444D",
"Y+	c #323034",
"Z+	c #323535",
"`+	c #423B3F",
" @	c #3E3D3F",
".@	c #433B40",
"+@	c #413A42",
"@@	c #62695F",
"                                                                                                ",
"                                                                                                ",
"                                                                                                ",
"                                                                                                ",
"                                                                                                ",
"                                                                                                ",
"                                                                                                ",
"                                                                                                ",
"                                                                                                ",
"                                                                                                ",
"                                                                                                ",
"                                                                                                ",
"                                                                                                ",
"                                                                                                ",
"                                                                                                ",
"                                                    .                                           ",
"                                      + @ # $ % & * = -                                         ",
"                                  ; > = , ' ) ! ) ~ ) = = {                                     ",
"                                ] = ^ / ) ( ) _ ) : ) < = = =                                   ",
"                              [ = } ) | ) 1 ) 2 ) 3 ) 4 ) 5 ) =                                 ",
"                            6 = 7 8 ) 9 ) 0 ) a ) b ) c ) d ) e =                               ",
"                            f g ) h ) i ) j ) k ) l ) m ) n ) o = p                             ",
"                          q = r ) s ) t ) u ) k ) v ) w ) x ) y z A                             ",
"                          B C D ) E ) F ) G ) H ) I J K ) L ) M N z O                           ",
"                        P = Q R ) S ) T ) U ) V ) W z X ) z Y Z z z `                           ",
"                         ...+.@.#.$.$.%.&.*.=.-.;.z z z >.,.z z '.).z !.                        ",
"                        ~.{.].^./.(._.:.<.[.}.|.1.z 2.3.4.z z 5.6.7.z 8.                        ",
"                        9.0.a.b.c.d.e.f.g.h.i.z z z j.z z k.l.m.z z z n.                        ",
"                        o.p.q.r.s.z z t.u.v.z w.x.y.z z.A.B.z z C.D.z E.                        ",
"                        F.G.H.I.J.K.L.M.z z N.O.z z P.Q.R.z z S.T.z z                           ",
"                          U.V.W.X.Y.Z.z z `. +z :..+++z z @+#+$+%+z &+                          ",
"                          *+=+z z z -+;+>+z z ,+'+)+z !+~+{+z z z ]+                            ",
"                            ^+/+(+_+:+<+z z [+}+z z |+1+2+z 3+4+z 5+                            ",
"                            6+= 7+8+z z 9+0+a+z b+c+d+e+z f+g+h+i+                              ",
"                              j+= z k+z l+z z m+n+o+z z z p+q+r+s+                              ",
"                                t+= = u+v+w+x+y+z z z+A+B+= = C+D+E+F+G+                        ",
"                  H+H+        H+H+H+I+= = J+K+z L+M+N+= = O+P+Q+R+S+T+U+H+V+                    ",
"                    H+H+H+H+H+H+        W+= = X+= = = Y+Z+`+ @.@+@@@                            ",
"                                                                                                ",
"                                                                                                ",
"                                                                                                ",
"                                                                                                ",
"                                                                                                ",
"                                                                                                ",
"                                                                                                ",
"                                                                                                ",
"                                                                                                ",
"                                                                                                "};
